<svg width="78" height="27" viewBox="0 0 78 27" fill="none" xmlns="http://www.w3.org/2000/svg">
<path d="M20.4211 23.0189L30.3235 0H33.6347L22.307 26.3322H0L1.74273 23.0189H20.4211Z" fill="white"/>
<path d="M57.5789 3.9811L47.6765 27H44.3653L55.693 0.667776L78 0.667779L76.2573 3.9811H57.5789Z" fill="white"/>
<path fill-rule="evenodd" clip-rule="evenodd" d="M40.57 1.14332H45.3501V23.0423H40.57V21.5384C39.5544 22.8225 38.1799 23.4645 36.4464 23.4645C35.4659 23.4645 34.5641 23.2798 33.7412 22.9104C32.9182 22.541 32.2003 22.0309 31.5875 21.3801C30.9746 20.7293 30.4931 19.9642 30.1429 19.0847C29.8103 18.2052 29.6439 17.2554 29.6439 16.2352C29.6439 15.2678 29.8015 14.3531 30.1167 13.4912C30.4494 12.6117 30.9134 11.8466 31.5087 11.1958C32.104 10.545 32.8132 10.0349 33.6361 9.66547C34.4766 9.2785 35.3958 9.08502 36.3939 9.08502C38.0748 9.08502 39.4669 9.67427 40.57 10.8528V1.14332ZM34.5816 16.2352C34.5816 16.6749 34.6604 17.0883 34.818 17.4752C34.9756 17.8446 35.1857 18.17 35.4484 18.4515C35.7285 18.7329 36.0525 18.9528 36.4202 19.1111C36.8054 19.2694 37.2169 19.3485 37.6546 19.3485C38.0748 19.3485 38.4688 19.2694 38.8365 19.1111C39.2217 18.9528 39.5456 18.7329 39.8083 18.4515C40.0884 18.17 40.3073 17.8446 40.4649 17.4752C40.64 17.1059 40.7275 16.7101 40.7275 16.2879C40.7275 15.8658 40.64 15.47 40.4649 15.1007C40.3073 14.7137 40.0884 14.3795 39.8083 14.098C39.5456 13.8166 39.2217 13.5967 38.8365 13.4384C38.4688 13.2801 38.0748 13.201 37.6546 13.201C37.2344 13.201 36.8316 13.2801 36.4464 13.4384C36.0787 13.5967 35.7548 13.8166 35.4746 14.098C35.212 14.3795 34.9931 14.7049 34.818 15.0743C34.6604 15.4261 34.5816 15.813 34.5816 16.2352Z" fill="white"/>
<path d="M18.7091 12.128C17.8862 11.5651 17.0544 11.2837 16.214 11.2837C15.7587 11.2837 15.3297 11.3629 14.927 11.5212C14.5418 11.6795 14.2004 11.9081 13.9027 12.2072C13.605 12.4886 13.3687 12.8316 13.1936 13.2362C13.036 13.6231 12.9572 14.0629 12.9572 14.5554C12.9572 15.0303 13.036 15.47 13.1936 15.8746C13.3687 16.2616 13.5963 16.6046 13.8764 16.9036C14.1741 17.185 14.5243 17.4049 14.927 17.5632C15.3297 17.7215 15.7587 17.8007 16.214 17.8007C17.107 17.8007 17.9387 17.4928 18.7091 16.8772V20.9404C17.536 21.4505 16.4241 21.7055 15.3735 21.7055C14.393 21.7055 13.4562 21.5384 12.5632 21.2042C11.6877 20.87 10.9085 20.3951 10.2257 19.7795C9.56029 19.1463 9.02625 18.3987 8.62352 17.5368C8.2208 16.6573 8.01944 15.6811 8.01944 14.6081C8.01944 13.5352 8.21204 12.559 8.59726 11.6795C8.98247 10.7824 9.50776 10.0173 10.1731 9.38404C10.8385 8.73322 11.6264 8.23192 12.5369 7.88013C13.465 7.51075 14.4543 7.32606 15.5048 7.32606C16.6605 7.32606 17.7286 7.57231 18.7091 8.06482V12.128Z" fill="white"/>
<path d="M63.6652 11.7762C64.5057 11.7762 65.3637 12.0049 66.2392 12.4622L67.8413 9.34886C66.4405 8.7684 64.996 8.47818 63.5077 8.47818C62.5972 8.47818 61.7654 8.59251 61.0125 8.82117C60.2771 9.04984 59.6468 9.37524 59.1215 9.79739C58.5962 10.2195 58.1935 10.7384 57.9133 11.3541C57.6332 11.9521 57.4931 12.6293 57.4931 13.3857C57.4931 14.4235 57.782 15.2414 58.3598 15.8394C58.9551 16.4199 59.9882 16.8596 61.459 17.1586C61.8968 17.2466 62.247 17.3345 62.5096 17.4225C62.7898 17.4928 62.9999 17.5808 63.14 17.6863C63.28 17.7743 63.3676 17.8798 63.4026 18.0029C63.4551 18.1085 63.4814 18.2492 63.4814 18.4251C63.4814 18.7241 63.3413 18.9704 63.0612 19.1638C62.781 19.3573 62.4221 19.4541 61.9843 19.4541C60.7937 19.4541 59.533 18.9967 58.2022 18.0821L56.4688 21.4593C58.2372 22.4971 60.032 23.016 61.853 23.016C62.7985 23.016 63.6652 22.8928 64.4532 22.6466C65.2411 22.4179 65.9152 22.0925 66.4756 21.6704C67.0359 21.2306 67.4736 20.6941 67.7888 20.0609C68.104 19.4277 68.2615 18.7153 68.2615 17.9238C68.2615 16.8684 67.9376 16.0065 67.2898 15.3381C66.6419 14.6521 65.6614 14.1772 64.3481 13.9134C63.8754 13.8078 63.4902 13.7199 63.1925 13.6495C62.9123 13.5792 62.6935 13.5 62.5359 13.4121C62.3958 13.3241 62.2995 13.2362 62.247 13.1482C62.2119 13.0427 62.1944 12.9107 62.1944 12.7524C62.1944 12.4534 62.3258 12.216 62.5884 12.0401C62.8686 11.8642 63.2275 11.7762 63.6652 11.7762Z" fill="white"/>
</svg>
